<?xml version="1.0" encoding="UTF-8"?>
<svg id="Warstwa_1" data-name="Warstwa 1" xmlns="http://www.w3.org/2000/svg" viewBox="0 0 512 512">
  <defs>
    <style>
      .cls-1 {
        isolation: isolate;
      }

      .cls-2 {
        fill: #fff200;
      }
    </style>
  </defs>
  <g id="_63GjEO_jYbvEHBMFrz_IT" data-name="63GjEO_jYbvEHBMFrz_IT">
    <path class="cls-2" d="m343.32,0c27.78,40.01,75.22,52.22,106.38,27.59l62.31,89.72c-31.14,25.46-33.67,78.87-5.66,119.21l-336.88,275.48c-28.01-40.34-76.02-52.42-107.16-26.96h0S0,395.32,0,395.32h0c31.14-25.46,33.67-78.87,5.66-119.21L343.32,0Zm-42.38,71.1c5.1,7.34,14.72,8.81,21.48,3.28s8.11-15.97,3.02-23.31c-5.1-7.34-14.72-8.81-21.48-3.28-6.76,5.53-8.11,15.97-3.02,23.31Zm33.68,48.51c5.1,7.34,14.72,8.81,21.48,3.28s8.11-15.97,3.02-23.31-14.72-8.81-21.48-3.28-8.11,15.97-3.02,23.31Zm31.84,45.85c5.1,7.34,14.72,8.81,21.48,3.28,6.76-5.53,8.11-15.97,3.02-23.31-5.1-7.34-14.72-8.81-21.48-3.28-6.76,5.53-8.11,15.97-3.02,23.31Zm34.6,49.83c5.1,7.34,14.72,8.81,21.48,3.28,6.76-5.53,8.11-15.97,3.02-23.31-5.1-7.34-14.72-8.81-21.48-3.28-6.76,5.53-8.11,15.97-3.02,23.31Zm30.71,44.23c5.1,7.34,14.72,8.81,21.48,3.28s8.11-15.97,3.02-23.31c-5.1-7.34-14.72-8.81-21.48-3.28-6.76,5.53-8.11,15.97-3.02,23.31Z" vector-effect="non-scaling-stroke"/>
  </g>
  <g id="_-MCgyM6dy0HJygFplVGkx" data-name="-MCgyM6dy0HJygFplVGkx">
    <g class="cls-1">
      <g class="cls-1">
        <path d="m404.3,90.23l1.86,2.67-23.18,18.96-1.86-2.67,23.18-18.96Zm-3.1-7.87l11.08,15.96-2.28,1.86-11.08-15.96,2.28-1.86Z"/>
        <path d="m391.95,124.77l-1.86-2.67,24.69-20.19,1.86,2.67-24.69,20.19Z"/>
        <path d="m398.86,133.19c-.19-1.68.08-3.3.81-4.88.73-1.58,1.89-3.02,3.49-4.33l9.66-7.9c1.6-1.31,3.2-2.12,4.8-2.46,1.61-.33,3.13-.17,4.56.49,1.43.66,2.7,1.79,3.81,3.38,1.03,1.49,1.65,3.02,1.86,4.6.21,1.58,0,3.14-.6,4.67-.61,1.53-1.61,2.95-3,4.26l-1.84-2.65c.91-.92,1.56-1.9,1.97-2.94.4-1.04.55-2.08.43-3.12-.12-1.04-.49-2.01-1.12-2.92-.73-1.06-1.59-1.79-2.56-2.19-.97-.4-2.01-.47-3.12-.22-1.11.25-2.23.84-3.35,1.75l-9.66,7.9c-1.12.92-1.95,1.92-2.48,3.01-.53,1.09-.75,2.19-.66,3.31.09,1.12.51,2.21,1.24,3.26.64.92,1.4,1.59,2.28,1.99.88.41,1.83.55,2.87.41,1.03-.13,2.09-.55,3.16-1.26l1.84,2.65c-1.54,1.08-3.07,1.73-4.6,1.94-1.53.21-2.97-.01-4.31-.67-1.34-.66-2.53-1.72-3.55-3.19-1.11-1.6-1.76-3.23-1.94-4.91Z"/>
        <path d="m433.87,129.39l1.84,2.65-24.69,20.19-1.84-2.65,24.69-20.19Zm-14.54,14.64l23.78-1.33,2.21,3.19-28.52,1.19,2.52-3.04Zm8.21,2.24l3.64-.47-9.86,21.27-2.19-3.15,8.4-17.65Z"/>
      </g>
    </g>
  </g>
  <g id="diao4zhN2r3E4cTTbC-y9">
    <g class="cls-1">
      <g class="cls-1">
        <path d="m146.73,357.07l19.6,26.5,57.34-49.92c1.31-1.14,2.06-2.34,2.27-3.61.21-1.27-.1-2.94-.92-5.02l2.09-1.82,18.5,25.02-2.09,1.82c-1.69-1.32-3.13-2.01-4.32-2.06-1.19-.06-2.43.49-3.74,1.62l-80.98,70.51-1.68-2.27c1.22-1.84,1.85-3.4,1.9-4.69.05-1.29-.47-2.66-1.55-4.13l-60.52-81.85c-1.08-1.46-2.21-2.31-3.38-2.54-1.17-.22-2.71.11-4.63,1l-1.68-2.27,79.41-69.14c1.31-1.14,2.06-2.34,2.26-3.63.2-1.28-.1-2.95-.91-5l2.09-1.82,18.5,25.02-2.09,1.82c-1.68-1.3-3.11-1.98-4.31-2.05-1.19-.07-2.44.47-3.75,1.61l-55.77,48.56,16.98,22.96,36.18-31.5c1.31-1.14,2.06-2.34,2.27-3.61.21-1.27-.1-2.94-.92-5.02l2.09-1.82,18.08,24.45-2.09,1.82c-1.66-1.27-3.09-1.95-4.29-2.03-1.2-.08-2.46.45-3.76,1.59l-36.18,31.5Z"/>
      </g>
      <g class="cls-1">
        <path d="m279.64,230.25l54.69,14.15c6.03,1.58,10.11,2.38,12.24,2.39,2.12.02,4.46-.77,7-2.37l1.68,2.27-35.36,30.79-1.68-2.27c2.19-2.84,2.59-5.21,1.2-7.1-.73-.99-2.71-1.91-5.92-2.77l-33.92-8.88-.1,37.22c.06,4.06.48,6.61,1.25,7.65,1.75,2.36,4.18,2.41,7.31.16l1.68,2.27-34.25,29.82-1.68-2.27c1.83-1.98,2.93-3.95,3.31-5.91.38-1.96.55-6.69.51-14.19l.06-60.48-51.14-13.39c-6.61-1.78-10.79-2.66-12.54-2.66-1.75,0-3.88.92-6.41,2.73l-1.74-2.21,35.77-31.14,1.68,2.27c-2.05,3.03-2.29,5.61-.72,7.73.84,1.13,3.17,2.21,7,3.23l28.14,7.28.03-31.81c-.04-4.7-.5-7.64-1.37-8.82-1.54-2.08-4-2.07-7.39.03l-1.68-2.27,34.8-30.3,1.68,2.27c-1.91,2.06-3.03,3.86-3.35,5.42-.32,1.56-.53,6.38-.63,14.47l-.15,56.71Z"/>
      </g>
    </g>
  </g>
</svg>